# Blender v2.66 (sub 1) OBJ File: 'baum.blend'
# www.blender.org
mtllib baum.mtl
o Cube
v 1.000000 -0.443393 -1.000000
v 1.000000 -0.443393 1.000000
v -1.000000 -0.443393 1.000000
v -1.000000 -0.443393 -1.000000
v 1.000000 0.443393 -0.999999
v 0.999999 0.443393 1.000001
v -1.000000 0.443393 1.000000
v -1.000000 0.443393 -1.000000
v 0.556913 -0.982527 -0.556913
v 0.556913 -0.982527 0.556913
v -0.556913 -0.982527 -0.556913
v -0.556913 -0.982527 0.556913
v 0.556913 0.982527 -0.556913
v 0.556913 0.982527 0.556913
v -0.556913 0.982527 -0.556913
v -0.556913 0.982527 0.556913
v 0.350608 -0.982527 -0.350608
v 0.350608 -0.982527 0.350607
v -0.350607 -0.982527 -0.350608
v -0.350608 -0.982527 0.350607
v 0.350608 -0.982527 -0.350608
v 0.350608 -0.982527 0.350607
v -0.350607 -0.982527 -0.350608
v -0.350608 -0.982527 0.350607
v 0.350608 -1.778515 -0.350608
v 0.350608 -1.778515 0.350607
v -0.350607 -1.778515 -0.350608
v -0.350608 -1.778515 0.350607
vt 0.000000 0.000000
vt 1.000000 0.077500
vt 0.999409 0.270240
vt 0.806668 0.269649
vt 0.267530 0.023476
vt 0.364880 0.142097
vt 0.097350 0.361654
vt 0.000364 0.504744
vt 0.000000 0.386191
vt 0.346451 0.503682
vt 0.729760 0.243032
vt 0.632410 0.361653
vt 0.462230 0.023476
vt 0.364880 0.527227
vt 0.462230 0.408606
vt 0.729760 0.628162
vt 0.000084 0.122274
vt 0.149076 0.000000
vt 0.580685 0.385130
vt 0.729676 0.507403
vt 0.270148 0.624675
vt 0.077407 0.625267
vt 0.580684 0.000000
vt 0.729676 0.122274
vt 0.364796 0.262856
vt 0.215804 0.385130
vt 0.513956 0.770259
vt 0.364964 0.647985
vt 0.807260 0.076909
vt 0.730821 0.000000
vt 0.513955 0.385130
vt 0.364964 0.262856
vt 0.113177 0.647824
vt 0.113413 0.724867
vt 0.077783 0.747644
vt 0.234754 0.724495
vt 0.270523 0.747053
vt 0.234518 0.647452
vt 0.729760 0.385502
vt 0.851101 0.385130
vt 0.851427 0.491543
vt 0.730323 0.568959
vt 0.730087 0.491916
vt 0.851523 0.844812
vt 0.730183 0.845185
vt 0.851101 0.707072
vt 0.851523 0.706700
vt 0.730183 0.707072
vt 0.729760 0.569331
vt 0.346028 0.885757
vt 0.224688 0.885385
vt 0.225110 0.747644
vt 0.000000 0.243032
vt 0.346087 0.385130
vt 0.632410 0.746783
vt 0.729760 0.346087
vt 0.851664 0.568587
vt 0.729760 0.707444
vt 0.851101 0.568959
vt 0.346451 0.748016
vn 0.000000 0.000000 0.000000
vn -0.000000 1.000000 0.000000
vn 1.000000 -0.000001 0.000001
vn -0.000000 -0.000001 1.000000
vn -1.000000 -0.000000 -0.000000
vn 0.000000 0.000001 -1.000000
vn 0.772567 -0.634933 0.000000
vn 0.000000 -0.634934 -0.772567
vn 0.000000 -0.634933 0.772567
vn -0.772567 -0.634933 -0.000000
vn 0.772567 0.634933 0.000000
vn 0.000000 0.634934 -0.772567
vn -0.000000 0.634933 0.772567
vn -0.772567 0.634933 -0.000000
vn 0.000000 -1.000000 0.000000
vn 0.000000 0.000000 1.000000
vn 1.000000 0.000000 -0.000000
vn 0.000000 0.000000 -1.000000
vn 1.000000 0.000001 -0.000000
vn -0.000000 -0.634934 0.772567
usemtl Material
s off
f 20/1/1 19/1/1 23/1/1
f 13/2/2 15/3/2 16/4/2
f 1/5/3 5/6/3 6/7/3
f 2/8/4 6/9/4 3/10/4
f 3/11/5 7/12/5 4/13/5
f 5/14/6 1/15/6 4/16/6
f 10/17/7 9/18/7 1/5/7
f 9/19/8 11/20/8 4/16/8
f 12/21/9 10/22/9 3/10/9
f 11/23/10 12/24/10 4/13/10
f 13/25/11 14/26/11 6/7/11
f 15/27/12 13/28/12 5/14/12
f 14/29/13 16/4/13 6/30/13
f 16/31/14 15/32/14 7/12/14
f 18/33/15 17/34/15 9/35/15
f 17/34/15 19/36/15 11/37/15
f 20/38/15 18/33/15 10/22/15
f 19/36/15 20/38/15 12/21/15
f 22/39/16 24/40/16 28/41/16
f 17/1/1 18/1/1 22/1/1
f 19/1/1 17/1/1 21/1/1
f 18/1/1 20/1/1 24/1/1
f 25/42/15 26/43/15 28/41/15
f 24/44/5 23/45/5 28/46/5
f 21/47/17 22/48/17 26/49/17
f 23/50/18 21/51/18 25/52/18
f 24/1/1 20/1/1 23/1/1
f 14/29/2 13/2/2 16/4/2
f 2/53/19 1/5/19 6/7/19
f 6/9/16 7/54/16 3/10/16
f 7/12/5 8/6/5 4/13/5
f 8/55/18 5/14/18 4/16/18
f 2/53/7 10/17/7 1/5/7
f 1/15/8 9/19/8 4/16/8
f 10/22/20 2/8/20 3/10/20
f 12/24/10 3/11/10 4/13/10
f 5/6/11 13/25/11 6/7/11
f 8/55/12 15/27/12 5/14/12
f 16/4/13 7/56/13 6/30/13
f 15/32/14 8/6/14 7/12/14
f 10/22/15 18/33/15 9/35/15
f 9/35/15 17/34/15 11/37/15
f 12/21/15 20/38/15 10/22/15
f 11/37/15 19/36/15 12/21/15
f 26/43/16 22/39/16 28/41/16
f 21/1/1 17/1/1 22/1/1
f 23/1/1 19/1/1 21/1/1
f 22/1/1 18/1/1 24/1/1
f 27/57/15 25/42/15 28/41/15
f 23/45/5 27/58/5 28/46/5
f 25/59/17 21/47/17 26/49/17
f 27/60/18 23/50/18 25/52/18
