# Blender v2.66 (sub 1) OBJ File: 'ghost.blend'
# www.blender.org
mtllib ghost.mtl
o Cylinder
v 0.000000 -1.150211 -1.000000
v 0.175581 -1.150211 -0.882707
v 0.382683 -1.150211 -0.923880
v 0.500013 -1.150211 -0.748323
v 0.707107 -1.150211 -0.707107
v 0.748323 -1.150211 -0.500013
v 0.923880 -1.150211 -0.382683
v 0.882707 -1.150211 -0.175581
v 1.000000 -1.150211 -0.000000
v 0.882707 -1.150211 0.175581
v 0.923880 -1.150211 0.382683
v 0.748323 -1.150211 0.500013
v 0.707107 -1.150211 0.707107
v 0.500013 -1.150211 0.748323
v 0.382683 -1.150211 0.923880
v 0.175581 -1.150211 0.882707
v -0.000000 -1.150211 1.000000
v -0.175582 -1.150211 0.882707
v -0.382684 -1.150211 0.923879
v -0.500014 -1.150211 0.748322
v -0.707107 -1.150211 0.707106
v -0.748323 -1.150211 0.500013
v -0.923880 -1.150211 0.382683
v -0.882707 -1.150211 0.175580
v -1.000000 -1.150211 -0.000001
v -0.882707 -1.150211 -0.175582
v -0.923879 -1.150211 -0.382684
v -0.748322 -1.150211 -0.500014
v -0.707106 -1.150211 -0.707108
v -0.500012 -1.150211 -0.748323
v -0.382682 -1.150211 -0.923880
v -0.175580 -1.150211 -0.882707
v 0.000000 1.342953 -0.900000
v 0.175581 1.342953 -0.882707
v 0.344415 1.342953 -0.831492
v 0.500013 1.342953 -0.748323
v 0.636396 1.342953 -0.636396
v 0.748323 1.342953 -0.500013
v 0.831492 1.342953 -0.344415
v 0.882707 1.342953 -0.175581
v 0.900000 1.342953 -0.000000
v 0.882707 1.342953 0.175581
v 0.831492 1.342953 0.344415
v 0.748323 1.342953 0.500013
v 0.636396 1.342953 0.636396
v 0.500013 1.342953 0.748323
v 0.344415 1.342953 0.831492
v 0.175581 1.342953 0.882707
v -0.000000 1.342953 0.900000
v -0.175582 1.342953 0.882707
v -0.344415 1.342953 0.831491
v -0.500014 1.342953 0.748322
v -0.636397 1.342953 0.636396
v -0.748323 1.342953 0.500013
v -0.831492 1.342953 0.344414
v -0.882707 1.342953 0.175580
v -0.900000 1.342953 -0.000001
v -0.882707 1.342953 -0.175582
v -0.831491 1.342953 -0.344416
v -0.748322 1.342953 -0.500014
v -0.636395 1.342953 -0.636397
v -0.500012 1.342953 -0.748323
v -0.344414 1.342953 -0.831492
v -0.175580 1.342953 -0.882707
v -0.000000 1.711579 -0.753060
v 0.000000 1.849789 -0.529539
v 0.146915 1.711579 -0.738590
v 0.103308 1.849789 -0.519364
v 0.288184 1.711579 -0.695737
v 0.202646 1.849789 -0.489231
v 0.418378 1.711579 -0.626146
v 0.294196 1.849789 -0.440296
v 0.532494 1.711579 -0.532494
v 0.374441 1.849789 -0.374441
v 0.626146 1.711579 -0.418378
v 0.440296 1.849789 -0.294196
v 0.695737 1.711579 -0.288184
v 0.489230 1.849789 -0.202646
v 0.738590 1.711579 -0.146915
v 0.519364 1.849789 -0.103308
v 0.753060 1.711579 0.000000
v 0.529539 1.849789 0.000000
v 0.738590 1.711579 0.146915
v 0.519364 1.849789 0.103308
v 0.695737 1.711579 0.288183
v 0.489231 1.849789 0.202646
v 0.626147 1.711579 0.418378
v 0.440296 1.849789 0.294196
v 0.532494 1.711579 0.532494
v 0.374441 1.849789 0.374441
v 0.418378 1.711579 0.626147
v 0.294196 1.849789 0.440296
v 0.288183 1.711579 0.695737
v 0.202646 1.849789 0.489230
v 0.146915 1.711579 0.738590
v 0.103308 1.849789 0.519364
v -0.000000 1.711579 0.753060
v -0.000000 1.849789 0.529539
v -0.146915 1.711579 0.738590
v -0.103308 1.849789 0.519364
v -0.288184 1.711579 0.695737
v -0.202646 1.849789 0.489230
v -0.418378 1.711579 0.626146
v -0.294196 1.849789 0.440296
v -0.532494 1.711579 0.532493
v -0.374441 1.849789 0.374441
v -0.626147 1.711579 0.418377
v -0.440296 1.849789 0.294196
v -0.695737 1.711579 0.288183
v -0.489231 1.849789 0.202646
v -0.738590 1.711579 0.146914
v -0.519364 1.849789 0.103308
v -0.753060 1.711579 -0.000000
v -0.529539 1.849789 -0.000001
v -0.738590 1.711579 -0.146915
v -0.519364 1.849789 -0.103308
v -0.695736 1.711579 -0.288185
v -0.489230 1.849789 -0.202646
v -0.626146 1.711579 -0.418378
v -0.440295 1.849789 -0.294197
v -0.532493 1.711579 -0.532495
v -0.374440 1.849789 -0.374441
v -0.418376 1.711579 -0.626147
v -0.294195 1.849789 -0.440297
v -0.288183 1.711579 -0.695737
v -0.202646 1.849789 -0.489230
v -0.146914 1.711579 -0.738590
v -0.103307 1.849789 -0.519364
vt 0.387555 0.323537
vt 0.667630 0.279008
vt 0.389916 0.331791
vt 0.384757 0.348534
vt 0.670161 0.443493
vt 0.377087 0.354720
vt 0.653313 0.497752
vt 0.629340 0.551129
vt 0.363212 0.383522
vt 0.347154 0.392416
vt 0.598363 0.600709
vt 0.561153 0.647174
vt 0.322279 0.411534
vt 0.298893 0.416032
vt 0.517581 0.685556
vt 0.470486 0.719259
vt 0.264286 0.427894
vt 0.224495 0.418793
vt 0.421337 0.749785
vt 0.370130 0.776003
vt 0.185620 0.422032
vt 0.160741 0.390240
vt 0.000105 0.123500
vt 0.035679 0.103571
vt 0.161438 0.312922
vt 0.176602 0.279604
vt 0.058939 0.085827
vt 0.083559 0.069293
vt 0.182784 0.253935
vt 0.196934 0.249784
vt 0.109941 0.051889
vt 0.138441 0.036282
vt 0.206241 0.235583
vt 0.170417 0.021593
vt 0.218730 0.236940
vt 0.204945 0.009664
vt 0.234174 0.228178
vt 0.241565 0.003056
vt 0.233202 0.231816
vt 0.260497 0.218757
vt 0.280108 0.000105
vt 0.319901 0.000105
vt 0.273643 0.226212
vt 0.299372 0.223145
vt 0.360864 0.004700
vt 0.402874 0.013385
vt 0.317811 0.236221
vt 0.333077 0.240762
vt 0.444581 0.027301
vt 0.486335 0.047088
vt 0.345230 0.253514
vt 0.363123 0.263030
vt 0.526271 0.072444
vt 0.563889 0.103731
vt 0.371458 0.278958
vt 0.383982 0.290496
vt 0.597898 0.140159
vt 0.627397 0.182177
vt 0.385686 0.308893
vt 0.389189 0.314091
vt 0.651775 0.228295
vt 0.384841 0.339950
vt 0.677182 0.387465
vt 0.833136 0.307532
vt 0.806078 0.305912
vt 0.812681 0.253055
vt 0.815167 0.223848
vt 0.805688 0.221862
vt 0.826620 0.224013
vt 0.860504 0.304267
vt 0.829802 0.253817
vt 0.887340 0.296028
vt 0.847356 0.251177
vt 0.912738 0.282937
vt 0.864620 0.245121
vt 0.935810 0.265355
vt 0.881032 0.235761
vt 0.955766 0.243899
vt 0.896098 0.223294
vt 0.972069 0.219493
vt 0.909306 0.207938
vt 0.984601 0.193062
vt 0.920145 0.190337
vt 0.993648 0.165495
vt 0.928435 0.170669
vt 0.999895 0.137711
vt 0.934020 0.149223
vt 0.956406 0.052962
vt 0.974695 0.072924
vt 0.928374 0.111180
vt 0.936042 0.035451
vt 0.915895 0.093693
vt 0.913767 0.021057
vt 0.902251 0.079379
vt 0.889931 0.010208
vt 0.887453 0.068152
vt 0.864877 0.003153
vt 0.871798 0.060063
vt 0.838853 0.000105
vt 0.839012 0.053148
vt 0.812121 0.001387
vt 0.821910 0.054363
vt 0.785213 0.007423
vt 0.804717 0.058923
vt 0.758998 0.018539
vt 0.788151 0.066851
vt 0.734574 0.034808
vt 0.772876 0.078040
vt 0.713142 0.055936
vt 0.759621 0.092123
vt 0.695845 0.081284
vt 0.748939 0.108630
vt 0.683684 0.109899
vt 0.677416 0.140504
vt 0.741283 0.127010
vt 0.677416 0.171618
vt 0.736504 0.166211
vt 0.683607 0.201709
vt 0.739598 0.185391
vt 0.695448 0.229363
vt 0.746147 0.203170
vt 0.712034 0.253486
vt 0.755727 0.218868
vt 0.732294 0.273394
vt 0.767761 0.231959
vt 0.755199 0.288789
vt 0.779966 0.299624
vt 0.796626 0.249116
vt 0.677206 0.332388
vt 0.838407 0.221622
vt 0.849887 0.216567
vt 0.860855 0.208950
vt 0.871013 0.199173
vt 0.879767 0.187586
vt 0.886785 0.174305
vt 0.891668 0.159815
vt 0.893785 0.144190
vt 0.892685 0.127910
vt 0.886456 0.113984
vt 0.878556 0.102483
vt 0.869456 0.093621
vt 0.859208 0.087325
vt 0.849890 0.083768
vt 0.855621 0.055078
vt 0.839960 0.082772
vt 0.828650 0.083930
vt 0.816967 0.087582
vt 0.805792 0.093680
vt 0.795560 0.101977
vt 0.786842 0.112353
vt 0.779739 0.124375
vt 0.774328 0.137440
vt 0.771072 0.151104
vt 0.770094 0.164847
vt 0.771420 0.178098
vt 0.775224 0.190497
vt 0.781118 0.201557
vt 0.788566 0.210664
vt 0.797155 0.217511
vt 0.781561 0.242085
vt 0.317378 0.798182
vt 0.936934 0.125936
vt 0.737069 0.146478
vn -0.555486 -0.000000 -0.831526
vn 0.830950 0.033334 -0.555348
vn 0.634393 0.000000 -0.773010
vn 0.980220 0.033334 -0.195084
vn 0.881921 0.000000 -0.471396
vn 0.980261 0.033334 0.194880
vn 0.995185 0.000000 -0.098017
vn 0.831065 0.033334 0.555175
vn 0.956940 0.000000 0.290285
vn 0.555348 0.033334 0.830949
vn 0.773010 0.000000 0.634393
vn 0.195084 0.033334 0.980220
vn 0.471397 0.000000 0.881921
vn -0.194880 0.033334 0.980260
vn 0.098017 0.000000 0.995185
vn -0.097939 0.039885 0.994393
vn -0.290285 0.000000 0.956940
vn -0.471022 0.039885 0.881219
vn -0.195193 0.000000 0.980765
vn -0.772396 0.039885 0.633888
vn -0.555658 0.000000 0.831411
vn -0.956179 0.039885 0.290053
vn -0.831528 0.000000 0.555483
vn -0.994393 0.039885 -0.097940
vn -0.980806 0.000000 0.194987
vn -0.881219 0.039885 -0.471022
vn -0.980765 -0.000000 -0.195194
vn -0.633888 0.039885 -0.772396
vn -0.831411 -0.000000 -0.555658
vn -0.290052 0.039885 -0.956179
vn -0.194988 -0.000000 -0.980806
vn 0.269829 0.368742 -0.889507
vn 0.000000 -1.000000 -0.000000
vn -0.000000 1.000000 0.000000
vn 0.438178 0.368741 -0.819774
vn 0.589689 0.368741 -0.718538
vn 0.718538 0.368741 -0.589689
vn 0.819774 0.368742 -0.438178
vn 0.889507 0.368742 -0.269829
vn 0.925056 0.368742 -0.091110
vn 0.925056 0.368741 0.091110
vn 0.889507 0.368742 0.269829
vn 0.819774 0.368741 0.438178
vn 0.718538 0.368741 0.589689
vn 0.589689 0.368741 0.718538
vn 0.438178 0.368741 0.819774
vn 0.269828 0.368741 0.889507
vn 0.091110 0.368741 0.925056
vn -0.091110 0.368741 0.925056
vn -0.269829 0.368741 0.889507
vn -0.438179 0.368741 0.819774
vn -0.589689 0.368741 0.718538
vn -0.718538 0.368741 0.589688
vn -0.819775 0.368741 0.438178
vn -0.889507 0.368741 0.269828
vn -0.925056 0.368741 0.091110
vn -0.925056 0.368741 -0.091111
vn -0.889506 0.368741 -0.269830
vn -0.819774 0.368742 -0.438179
vn -0.718537 0.368741 -0.589690
vn -0.589688 0.368742 -0.718539
vn -0.438177 0.368741 -0.819775
vn -0.269828 0.368742 -0.889507
vn 0.091110 0.368741 -0.925056
vn 0.555175 0.033334 -0.831065
vn 0.051729 0.849400 -0.525209
vn 0.153197 0.849400 -0.505025
vn 0.248779 0.849400 -0.465434
vn 0.334801 0.849400 -0.407956
vn 0.407956 0.849400 -0.334801
vn 0.465434 0.849400 -0.248779
vn 0.505025 0.849400 -0.153198
vn 0.525209 0.849400 -0.051729
vn 0.525209 0.849400 0.051729
vn 0.505025 0.849400 0.153197
vn 0.465434 0.849400 0.248779
vn 0.407956 0.849400 0.334801
vn 0.334801 0.849400 0.407956
vn 0.248779 0.849400 0.465434
vn 0.153197 0.849400 0.505025
vn 0.051729 0.849400 0.525209
vn -0.051729 0.849400 0.525209
vn -0.153198 0.849400 0.505025
vn -0.248780 0.849400 0.465434
vn -0.334801 0.849400 0.407956
vn -0.407956 0.849400 0.334801
vn -0.465434 0.849400 0.248779
vn -0.505025 0.849400 0.153197
vn -0.525208 0.849400 0.051729
vn -0.525209 0.849400 -0.051729
vn -0.505025 0.849400 -0.153198
vn -0.465433 0.849400 -0.248780
vn -0.407956 0.849400 -0.334801
vn -0.334800 0.849400 -0.407957
vn -0.248779 0.849400 -0.465434
vn -0.153197 0.849400 -0.505025
vn -0.051729 0.849400 -0.525208
vn -0.091109 0.368741 -0.925056
vn -0.097938 0.039885 -0.994393
vn 0.471397 0.000000 -0.881921
vn 0.195084 0.033334 -0.980220
vn 0.773010 0.000000 -0.634393
vn 0.555348 0.033334 -0.830950
vn 0.956940 0.000000 -0.290285
vn 0.831065 0.033334 -0.555175
vn 0.995185 -0.000000 0.098017
vn 0.980261 0.033334 -0.194880
vn 0.881921 -0.000000 0.471396
vn 0.980220 0.033334 0.195084
vn 0.634393 -0.000000 0.773011
vn 0.830950 0.033334 0.555348
vn 0.290284 -0.000000 0.956940
vn 0.555175 0.033334 0.831066
vn -0.555484 0.000000 0.831527
vn 0.194879 0.033334 0.980261
vn -0.831412 0.000000 0.555657
vn -0.633889 0.039885 0.772395
vn -0.980765 0.000000 0.195192
vn -0.881220 0.039885 0.471021
vn -0.980805 0.000000 -0.194989
vn -0.994393 0.039885 0.097939
vn -0.831527 0.000000 -0.555484
vn -0.956178 0.039885 -0.290055
vn -0.555656 0.000000 -0.831412
vn -0.772394 0.039885 -0.633890
vn -0.195192 0.000000 -0.980765
vn -0.471020 0.039885 -0.881220
vn 0.194989 0.000000 -0.980805
vn 0.290054 0.039885 -0.956179
vn 0.269829 0.368741 -0.889507
vn 0.718538 0.368742 -0.589689
vn 0.819774 0.368741 -0.438178
vn 0.925056 0.368742 -0.091111
vn 0.925056 0.368742 0.091110
vn 0.889507 0.368741 0.269829
vn 0.819775 0.368741 0.438178
vn 0.091111 0.368741 0.925056
vn -0.091111 0.368741 0.925056
vn -0.438178 0.368741 0.819774
vn -0.718539 0.368741 0.589688
vn -0.819774 0.368741 0.438178
vn -0.819773 0.368741 -0.438180
vn -0.718537 0.368742 -0.589690
vn -0.589688 0.368741 -0.718539
vn -0.269828 0.368741 -0.889507
vn 0.091110 0.368742 -0.925056
vn 0.098017 0.000000 -0.995185
vn 0.153198 0.849400 -0.505025
vn 0.248780 0.849400 -0.465434
vn 0.465434 0.849400 -0.248780
vn 0.505025 0.849400 0.153198
vn 0.248780 0.849400 0.465434
vn -0.407957 0.849400 0.334801
vn -0.525209 0.849400 0.051728
vn -0.465434 0.849400 -0.248780
vn -0.407956 0.849400 -0.334802
vn -0.051728 0.849400 -0.525209
vn -0.091110 0.368742 -0.925056
usemtl Material
s off
f 32/1/1 64/2/1 1/3/1
f 3/4/2 35/5/2 4/6/2
f 4/6/3 36/7/3 37/8/3
f 5/9/4 37/8/4 6/10/4
f 6/10/5 38/11/5 39/12/5
f 7/13/6 39/12/6 8/14/6
f 8/14/7 40/15/7 41/16/7
f 9/17/8 41/16/8 10/18/8
f 10/18/9 42/19/9 43/20/9
f 11/21/10 43/20/10 12/22/10
f 12/22/11 44/23/11 45/24/11
f 13/25/12 45/24/12 14/26/12
f 14/26/13 46/27/13 47/28/13
f 15/29/14 47/28/14 16/30/14
f 16/30/15 48/31/15 49/32/15
f 17/33/16 49/32/16 50/34/16
f 18/35/17 50/34/17 51/36/17
f 19/37/18 51/36/18 52/38/18
f 20/39/19 52/38/19 21/40/19
f 21/40/20 53/41/20 54/42/20
f 22/43/21 54/42/21 23/44/21
f 23/44/22 55/45/22 56/46/22
f 24/47/23 56/46/23 25/48/23
f 25/48/24 57/49/24 58/50/24
f 26/51/25 58/50/25 27/52/25
f 27/52/26 59/53/26 60/54/26
f 28/55/27 60/54/27 29/56/27
f 29/56/28 61/57/28 62/58/28
f 30/59/29 62/58/29 31/60/29
f 31/60/30 63/61/30 64/2/30
f 2/62/31 34/63/31 3/4/31
f 35/64/32 34/65/32 67/66/32
f 1/3/33 2/62/33 32/1/33
f 68/67/34 66/68/34 70/69/34
f 36/70/35 35/64/35 69/71/35
f 37/72/36 36/70/36 71/73/36
f 38/74/37 37/72/37 73/75/37
f 39/76/38 38/74/38 75/77/38
f 40/78/39 39/76/39 77/79/39
f 41/80/40 40/78/40 79/81/40
f 42/82/41 41/80/41 81/83/41
f 43/84/42 42/82/42 83/85/42
f 44/86/43 43/84/43 85/87/43
f 45/88/44 44/89/44 87/90/44
f 46/91/45 45/88/45 89/92/45
f 47/93/46 46/91/46 91/94/46
f 48/95/47 47/93/47 93/96/47
f 49/97/48 48/95/48 95/98/48
f 50/99/49 49/97/49 99/100/49
f 51/101/50 50/99/50 101/102/50
f 52/103/51 51/101/51 103/104/51
f 53/105/52 52/103/52 105/106/52
f 54/107/53 53/105/53 107/108/53
f 55/109/54 54/107/54 109/110/54
f 56/111/55 55/109/55 111/112/55
f 57/113/56 56/111/56 111/112/56
f 58/114/57 57/113/57 113/115/57
f 59/116/58 58/114/58 117/117/58
f 60/118/59 59/116/59 119/119/59
f 61/120/60 60/118/60 121/121/60
f 62/122/61 61/120/61 123/123/61
f 63/124/62 62/122/62 125/125/62
f 64/126/63 63/124/63 125/125/63
f 34/65/64 33/127/64 65/128/64
f 1/3/65 33/129/65 2/62/65
f 66/68/66 68/67/66 67/66/66
f 68/67/67 70/69/67 67/66/67
f 70/69/68 72/130/68 71/73/68
f 72/130/69 74/131/69 71/73/69
f 74/131/70 76/132/70 75/77/70
f 76/132/71 78/133/71 77/79/71
f 78/133/72 80/134/72 79/81/72
f 80/134/73 82/135/73 81/83/73
f 82/135/74 84/136/74 83/85/74
f 84/136/75 86/137/75 85/87/75
f 86/137/76 88/138/76 85/87/76
f 88/138/77 90/139/77 89/92/77
f 90/139/78 92/140/78 91/94/78
f 92/140/79 94/141/79 93/96/79
f 94/141/80 96/142/80 95/98/80
f 96/142/81 98/143/81 97/144/81
f 98/143/82 100/145/82 97/144/82
f 100/145/83 102/146/83 99/100/83
f 102/146/84 104/147/84 101/102/84
f 104/147/85 106/148/85 103/104/85
f 106/148/86 108/149/86 105/106/86
f 108/149/87 110/150/87 107/108/87
f 110/150/88 112/151/88 109/110/88
f 112/151/89 114/152/89 111/112/89
f 114/152/90 116/153/90 113/115/90
f 116/153/91 118/154/91 117/117/91
f 118/154/92 120/155/92 117/117/92
f 120/155/93 122/156/93 121/121/93
f 122/156/94 124/157/94 121/121/94
f 124/157/95 126/158/95 123/123/95
f 126/158/96 128/159/96 125/125/96
f 128/159/97 66/68/97 127/160/97
f 33/127/98 64/126/98 65/128/98
f 64/2/99 33/129/99 1/3/99
f 35/5/100 36/7/100 4/6/100
f 5/9/101 4/6/101 37/8/101
f 37/8/102 38/11/102 6/10/102
f 7/13/103 6/10/103 39/12/103
f 39/12/104 40/15/104 8/14/104
f 9/17/105 8/14/105 41/16/105
f 41/16/106 42/19/106 10/18/106
f 11/21/107 10/18/107 43/20/107
f 43/20/108 44/161/108 12/22/108
f 13/25/109 12/22/109 45/24/109
f 45/24/110 46/27/110 14/26/110
f 15/29/111 14/26/111 47/28/111
f 47/28/112 48/31/112 16/30/112
f 17/33/113 16/30/113 49/32/113
f 18/35/114 17/33/114 50/34/114
f 19/37/115 18/35/115 51/36/115
f 20/39/116 19/37/116 52/38/116
f 52/38/117 53/41/117 21/40/117
f 22/43/118 21/40/118 54/42/118
f 54/42/119 55/45/119 23/44/119
f 24/47/120 23/44/120 56/46/120
f 56/46/121 57/49/121 25/48/121
f 26/51/122 25/48/122 58/50/122
f 58/50/123 59/53/123 27/52/123
f 28/55/124 27/52/124 60/54/124
f 60/54/125 61/57/125 29/56/125
f 30/59/126 29/56/126 62/58/126
f 62/58/127 63/61/127 31/60/127
f 32/1/128 31/60/128 64/2/128
f 34/63/129 35/5/129 3/4/129
f 69/71/130 35/64/130 67/66/130
f 2/62/34 3/4/34 32/1/34
f 3/4/33 4/6/33 32/1/33
f 4/6/33 5/9/33 32/1/33
f 5/9/33 6/10/33 32/1/33
f 6/10/33 7/13/33 32/1/33
f 7/13/33 8/14/33 32/1/33
f 8/14/33 9/17/33 32/1/33
f 9/17/33 10/18/33 32/1/33
f 10/18/33 11/21/33 32/1/33
f 11/21/33 12/22/33 32/1/33
f 12/22/33 13/25/33 32/1/33
f 13/25/33 14/26/33 32/1/33
f 14/26/33 15/29/33 32/1/33
f 15/29/33 16/30/33 32/1/33
f 16/30/33 17/33/33 32/1/33
f 17/33/33 18/35/33 32/1/33
f 18/35/33 19/37/33 32/1/33
f 19/37/33 20/39/33 32/1/33
f 20/39/33 21/40/33 32/1/33
f 21/40/33 22/43/33 32/1/33
f 22/43/33 23/44/33 32/1/33
f 23/44/33 24/47/33 32/1/33
f 24/47/33 25/48/33 32/1/33
f 25/48/33 26/51/33 32/1/33
f 26/51/33 27/52/33 32/1/33
f 27/52/33 28/55/33 32/1/33
f 28/55/33 29/56/33 32/1/33
f 29/56/34 30/59/34 32/1/34
f 30/59/33 31/60/33 32/1/33
f 66/68/34 128/159/34 70/69/34
f 128/159/34 126/158/34 70/69/34
f 126/158/34 124/157/34 70/69/34
f 124/157/34 122/156/34 70/69/34
f 122/156/34 120/155/34 70/69/34
f 120/155/34 118/154/34 70/69/34
f 118/154/34 116/153/34 70/69/34
f 116/153/34 114/152/34 70/69/34
f 114/152/34 112/151/34 70/69/34
f 112/151/34 110/150/34 70/69/34
f 110/150/34 108/149/34 70/69/34
f 108/149/34 106/148/34 70/69/34
f 106/148/34 104/147/34 70/69/34
f 104/147/34 102/146/34 70/69/34
f 102/146/34 100/145/34 70/69/34
f 100/145/34 98/143/34 70/69/34
f 98/143/34 96/142/34 70/69/34
f 96/142/34 94/141/34 70/69/34
f 94/141/34 92/140/34 70/69/34
f 92/140/34 90/139/34 70/69/34
f 90/139/34 88/138/34 70/69/34
f 88/138/34 86/137/34 70/69/34
f 86/137/34 84/136/34 70/69/34
f 84/136/34 82/135/34 70/69/34
f 82/135/34 80/134/34 70/69/34
f 80/134/34 78/133/34 70/69/34
f 78/133/34 76/132/34 70/69/34
f 76/132/34 74/131/34 70/69/34
f 74/131/34 72/130/34 70/69/34
f 71/73/35 36/70/35 69/71/35
f 73/75/36 37/72/36 71/73/36
f 75/77/131 38/74/131 73/75/131
f 77/79/132 39/76/132 75/77/132
f 79/81/39 40/78/39 77/79/39
f 81/83/133 41/80/133 79/81/133
f 83/85/134 42/82/134 81/83/134
f 85/87/135 43/84/135 83/85/135
f 87/162/136 44/86/136 85/87/136
f 89/92/44 45/88/44 87/90/44
f 91/94/45 46/91/45 89/92/45
f 93/96/46 47/93/46 91/94/46
f 95/98/47 48/95/47 93/96/47
f 97/144/137 49/97/137 95/98/137
f 49/97/138 97/144/138 99/100/138
f 50/99/50 99/100/50 101/102/50
f 51/101/139 101/102/139 103/104/139
f 52/103/52 103/104/52 105/106/52
f 53/105/140 105/106/140 107/108/140
f 54/107/141 107/108/141 109/110/141
f 55/109/55 109/110/55 111/112/55
f 113/115/56 57/113/56 111/112/56
f 115/163/57 58/114/57 113/115/57
f 58/114/58 115/163/58 117/117/58
f 59/116/142 117/117/142 119/119/142
f 60/118/143 119/119/143 121/121/143
f 61/120/144 121/121/144 123/123/144
f 62/122/62 123/123/62 125/125/62
f 127/160/145 64/126/145 125/125/145
f 67/66/146 34/65/146 65/128/146
f 33/129/147 34/63/147 2/62/147
f 65/128/66 66/68/66 67/66/66
f 70/69/148 69/71/148 67/66/148
f 69/71/149 70/69/149 71/73/149
f 74/131/69 73/75/69 71/73/69
f 73/75/70 74/131/70 75/77/70
f 75/77/150 76/132/150 77/79/150
f 77/79/72 78/133/72 79/81/72
f 79/81/73 80/134/73 81/83/73
f 81/83/74 82/135/74 83/85/74
f 83/85/151 84/136/151 85/87/151
f 88/138/76 87/162/76 85/87/76
f 87/90/77 88/138/77 89/92/77
f 89/92/78 90/139/78 91/94/78
f 91/94/152 92/140/152 93/96/152
f 93/96/80 94/141/80 95/98/80
f 95/98/81 96/142/81 97/144/81
f 100/145/82 99/100/82 97/144/82
f 102/146/83 101/102/83 99/100/83
f 104/147/84 103/104/84 101/102/84
f 106/148/85 105/106/85 103/104/85
f 108/149/153 107/108/153 105/106/153
f 110/150/87 109/110/87 107/108/87
f 112/151/88 111/112/88 109/110/88
f 114/152/154 113/115/154 111/112/154
f 116/153/90 115/163/90 113/115/90
f 115/163/91 116/153/91 117/117/91
f 120/155/155 119/119/155 117/117/155
f 119/119/156 120/155/156 121/121/156
f 124/157/94 123/123/94 121/121/94
f 126/158/95 125/125/95 123/123/95
f 128/159/96 127/160/96 125/125/96
f 66/68/157 65/128/157 127/160/157
f 64/126/158 127/160/158 65/128/158
